<mxfile host="app.diagrams.net" agent="Mozilla/5.0 (Windows NT 10.0; Win64; x64) AppleWebKit/537.36 (KHTML, like Gecko) Chrome/131.0.0.0 Safari/537.36 Edg/131.0.0.0" version="25.0.1">
  <diagram name="Página-1" id="3alBF8wukUoYHJMtF1Qo">
    <mxGraphModel dx="2507" dy="1872" grid="1" gridSize="10" guides="1" tooltips="1" connect="1" arrows="1" fold="1" page="1" pageScale="1" pageWidth="827" pageHeight="1169" math="0" shadow="0">
      <root>
        <mxCell id="0" />
        <mxCell id="1" parent="0" />
        <mxCell id="qqcxtKHgyYE-vejOdLN6-1" style="edgeStyle=orthogonalEdgeStyle;rounded=0;orthogonalLoop=1;jettySize=auto;html=1;entryX=1;entryY=0.5;entryDx=0;entryDy=0;endArrow=blockThin;endFill=0;" edge="1" parent="1" source="qqcxtKHgyYE-vejOdLN6-6" target="qqcxtKHgyYE-vejOdLN6-35">
          <mxGeometry relative="1" as="geometry" />
        </mxCell>
        <mxCell id="qqcxtKHgyYE-vejOdLN6-2" value="realiza" style="edgeLabel;html=1;align=center;verticalAlign=middle;resizable=0;points=[];" connectable="0" vertex="1" parent="qqcxtKHgyYE-vejOdLN6-1">
          <mxGeometry x="0.01" y="-2" relative="1" as="geometry">
            <mxPoint as="offset" />
          </mxGeometry>
        </mxCell>
        <mxCell id="qqcxtKHgyYE-vejOdLN6-6" value="&lt;p style=&quot;margin:0px;margin-top:4px;text-align:center;&quot;&gt;&lt;i&gt;&amp;lt;&amp;lt;Entidad&amp;gt;&amp;gt;&lt;/i&gt;&lt;br&gt;&lt;b&gt;Socio&lt;/b&gt;&lt;/p&gt;&lt;hr size=&quot;1&quot;&gt;&lt;p style=&quot;margin:0px;margin-left:4px;&quot;&gt;dni: 98765432D&lt;/p&gt;&lt;p style=&quot;margin:0px;margin-left:4px;&quot;&gt;&lt;br&gt;&lt;/p&gt;&lt;p style=&quot;margin:0px;margin-left:4px;&quot;&gt;&lt;span style=&quot;background-color: initial;&quot;&gt;/cuotaPagada: True&lt;/span&gt;&lt;/p&gt;&lt;p style=&quot;margin:0px;margin-left:4px;&quot;&gt;&lt;span style=&quot;background-color: initial;&quot;&gt;&lt;br&gt;&lt;/span&gt;&lt;/p&gt;&lt;p style=&quot;margin:0px;margin-left:4px;&quot;&gt;&lt;span style=&quot;background-color: initial;&quot;&gt;telefono:&amp;nbsp;&lt;/span&gt;&lt;span style=&quot;background-color: initial;&quot;&gt;622889990&lt;/span&gt;&lt;/p&gt;&lt;p style=&quot;margin:0px;margin-left:4px;&quot;&gt;&lt;span style=&quot;background-color: initial;&quot;&gt;&lt;br&gt;&lt;/span&gt;&lt;/p&gt;&lt;p style=&quot;margin:0px;margin-left:4px;&quot;&gt;&lt;span style=&quot;background-color: initial;&quot;&gt;/numInvitaciones: 12&lt;/span&gt;&lt;/p&gt;&lt;p style=&quot;margin:0px;margin-left:4px;&quot;&gt;&lt;br&gt;&lt;/p&gt;&lt;p style=&quot;margin:0px;margin-left:4px;&quot;&gt;&lt;br&gt;&lt;/p&gt;" style="verticalAlign=top;align=left;overflow=fill;fontSize=12;fontFamily=Helvetica;html=1;rounded=0;shadow=0;comic=0;labelBackgroundColor=none;strokeWidth=1" vertex="1" parent="1">
          <mxGeometry x="30" y="290" width="190" height="180" as="geometry" />
        </mxCell>
        <mxCell id="qqcxtKHgyYE-vejOdLN6-7" value="&lt;p style=&quot;margin:0px;margin-top:4px;text-align:center;&quot;&gt;&lt;i&gt;&amp;lt;&amp;lt;Entidad&amp;gt;&amp;gt;&lt;/i&gt;&lt;br&gt;&lt;b&gt;Usuario&lt;/b&gt;&lt;/p&gt;&lt;hr size=&quot;1&quot;&gt;&lt;p style=&quot;margin:0px;margin-left:4px;&quot;&gt;Correo: alvaroguerr2014@gmail.com&lt;/p&gt;&lt;p style=&quot;margin:0px;margin-left:4px;&quot;&gt;&lt;br&gt;&lt;/p&gt;&lt;p style=&quot;margin:0px;margin-left:4px;&quot;&gt;Contraseña: contraseñaClub_&lt;/p&gt;&lt;p style=&quot;margin:0px;margin-left:4px;&quot;&gt;&lt;br&gt;&lt;/p&gt;&lt;p style=&quot;margin:0px;margin-left:4px;&quot;&gt;nombre:Álvaro&amp;nbsp;&lt;/p&gt;&lt;p style=&quot;margin:0px;margin-left:4px;&quot;&gt;&lt;br&gt;&lt;/p&gt;&lt;p style=&quot;margin:0px;margin-left:4px;&quot;&gt;apellido1:&lt;span style=&quot;background-color: initial;&quot;&gt;Guerrero&amp;nbsp;&lt;/span&gt;&lt;/p&gt;&lt;p style=&quot;margin:0px;margin-left:4px;&quot;&gt;&lt;span style=&quot;background-color: initial;&quot;&gt;&lt;br&gt;&lt;/span&gt;&lt;/p&gt;&lt;p style=&quot;margin:0px;margin-left:4px;&quot;&gt;apellido2:&amp;nbsp;&lt;span style=&quot;background-color: initial;&quot;&gt;López&lt;/span&gt;&lt;/p&gt;&lt;p style=&quot;margin:0px;margin-left:4px;&quot;&gt;&lt;br&gt;&lt;/p&gt;&lt;p style=&quot;margin:0px;margin-left:4px;&quot;&gt;fechaNacimiento: 27/10/2005&lt;/p&gt;" style="verticalAlign=top;align=left;overflow=fill;fontSize=12;fontFamily=Helvetica;html=1;rounded=0;shadow=0;comic=0;labelBackgroundColor=none;strokeWidth=1" vertex="1" parent="1">
          <mxGeometry x="235" y="-40" width="225" height="240" as="geometry" />
        </mxCell>
        <mxCell id="qqcxtKHgyYE-vejOdLN6-12" style="edgeStyle=orthogonalEdgeStyle;rounded=0;orthogonalLoop=1;jettySize=auto;html=1;endArrow=block;endFill=1;" edge="1" parent="1" source="qqcxtKHgyYE-vejOdLN6-6" target="qqcxtKHgyYE-vejOdLN6-7">
          <mxGeometry relative="1" as="geometry">
            <Array as="points">
              <mxPoint x="125" y="280" />
              <mxPoint x="310" y="280" />
            </Array>
          </mxGeometry>
        </mxCell>
        <mxCell id="qqcxtKHgyYE-vejOdLN6-13" value="&lt;p style=&quot;margin:0px;margin-top:4px;text-align:center;&quot;&gt;&lt;i&gt;&amp;lt;&amp;lt;Entidad&amp;gt;&amp;gt;&lt;/i&gt;&lt;br&gt;&lt;b&gt;Suscripción&lt;/b&gt;&lt;/p&gt;&lt;hr size=&quot;1&quot;&gt;&lt;p style=&quot;margin: 0px 0px 0px 4px;&quot;&gt;&lt;span style=&quot;background-color: initial;&quot;&gt;precio:105&lt;/span&gt;&lt;/p&gt;&lt;p style=&quot;margin: 0px 0px 0px 4px;&quot;&gt;&lt;span style=&quot;background-color: initial;&quot;&gt;&lt;br&gt;&lt;/span&gt;&lt;/p&gt;&lt;p style=&quot;margin: 0px 0px 0px 4px;&quot;&gt;&lt;span style=&quot;background-color: initial;&quot;&gt;tipo: NORMAL&lt;/span&gt;&lt;/p&gt;&lt;p style=&quot;margin: 0px 0px 0px 4px;&quot;&gt;&lt;br&gt;&lt;/p&gt;" style="verticalAlign=top;align=left;overflow=fill;fontSize=12;fontFamily=Helvetica;html=1;rounded=0;shadow=0;comic=0;labelBackgroundColor=none;strokeWidth=1" vertex="1" parent="1">
          <mxGeometry x="-319.5" y="639" width="190" height="140" as="geometry" />
        </mxCell>
        <mxCell id="qqcxtKHgyYE-vejOdLN6-14" value="*" style="text;html=1;align=center;verticalAlign=middle;resizable=0;points=[];autosize=1;strokeColor=none;fillColor=none;" vertex="1" parent="1">
          <mxGeometry y="340" width="30" height="30" as="geometry" />
        </mxCell>
        <mxCell id="qqcxtKHgyYE-vejOdLN6-15" value="*" style="text;html=1;align=center;verticalAlign=middle;resizable=0;points=[];autosize=1;strokeColor=none;fillColor=none;" vertex="1" parent="1">
          <mxGeometry x="-130" y="340" width="30" height="30" as="geometry" />
        </mxCell>
        <mxCell id="qqcxtKHgyYE-vejOdLN6-16" value="R.N.01:&amp;nbsp;Cada socio solo dispone de 12 entradas al mes para poder invitar&amp;nbsp;&lt;div&gt;a no socios.&amp;nbsp;&lt;/div&gt;" style="shape=note;whiteSpace=wrap;html=1;backgroundOutline=1;darkOpacity=0.05;" vertex="1" parent="1">
          <mxGeometry x="-400" y="138" width="430" height="70" as="geometry" />
        </mxCell>
        <mxCell id="qqcxtKHgyYE-vejOdLN6-17" style="edgeStyle=orthogonalEdgeStyle;rounded=0;orthogonalLoop=1;jettySize=auto;html=1;entryX=0.368;entryY=0;entryDx=0;entryDy=0;entryPerimeter=0;dashed=1;endArrow=none;endFill=0;" edge="1" parent="1" source="qqcxtKHgyYE-vejOdLN6-16" target="qqcxtKHgyYE-vejOdLN6-6">
          <mxGeometry relative="1" as="geometry">
            <Array as="points">
              <mxPoint x="-185" y="240" />
              <mxPoint x="60" y="240" />
              <mxPoint x="60" y="290" />
            </Array>
          </mxGeometry>
        </mxCell>
        <mxCell id="qqcxtKHgyYE-vejOdLN6-18" value="1" style="text;html=1;align=center;verticalAlign=middle;resizable=0;points=[];autosize=1;strokeColor=none;fillColor=none;" vertex="1" parent="1">
          <mxGeometry x="70" y="270" width="30" height="30" as="geometry" />
        </mxCell>
        <mxCell id="qqcxtKHgyYE-vejOdLN6-22" style="edgeStyle=orthogonalEdgeStyle;rounded=0;orthogonalLoop=1;jettySize=auto;html=1;entryX=0;entryY=0.25;entryDx=0;entryDy=0;dashed=1;endArrow=none;endFill=0;exitX=0.809;exitY=0.962;exitDx=0;exitDy=0;exitPerimeter=0;" edge="1" parent="1" source="qqcxtKHgyYE-vejOdLN6-23" target="qqcxtKHgyYE-vejOdLN6-13">
          <mxGeometry relative="1" as="geometry">
            <Array as="points">
              <mxPoint x="-542" y="674" />
            </Array>
          </mxGeometry>
        </mxCell>
        <mxCell id="qqcxtKHgyYE-vejOdLN6-23" value="R.N.02: Los nuevos socios deberán pagar la inscripción inicial para poder completar el registro en el club. Los socios con cuotas sin pagar no pueden acceder al club ni disfrutar de los servicios.&amp;nbsp;" style="shape=note;whiteSpace=wrap;html=1;backgroundOutline=1;darkOpacity=0.05;" vertex="1" parent="1">
          <mxGeometry x="-922.5" y="537" width="470" height="100" as="geometry" />
        </mxCell>
        <mxCell id="qqcxtKHgyYE-vejOdLN6-24" style="edgeStyle=orthogonalEdgeStyle;rounded=0;orthogonalLoop=1;jettySize=auto;html=1;entryX=0;entryY=0.5;entryDx=0;entryDy=0;dashed=1;endArrow=none;endFill=0;" edge="1" parent="1" source="qqcxtKHgyYE-vejOdLN6-25" target="qqcxtKHgyYE-vejOdLN6-13">
          <mxGeometry relative="1" as="geometry">
            <Array as="points">
              <mxPoint x="-562.5" y="709" />
              <mxPoint x="-562.5" y="709" />
            </Array>
          </mxGeometry>
        </mxCell>
        <mxCell id="qqcxtKHgyYE-vejOdLN6-25" value="R.N.03:&amp;nbsp;Se cobrará la suscripción el día 1 de cada mes, sin incluir el mes en el que se hace la inscripción. Si no se ha pagado en los siguientes 7 días, se le suspenderá la suscripción temporalmente" style="shape=note;whiteSpace=wrap;html=1;backgroundOutline=1;darkOpacity=0.05;" vertex="1" parent="1">
          <mxGeometry x="-972.5" y="667" width="420" height="100" as="geometry" />
        </mxCell>
        <mxCell id="qqcxtKHgyYE-vejOdLN6-26" style="edgeStyle=orthogonalEdgeStyle;rounded=0;orthogonalLoop=1;jettySize=auto;html=1;entryX=0;entryY=0.75;entryDx=0;entryDy=0;dashed=1;endArrow=none;endFill=0;" edge="1" parent="1" source="qqcxtKHgyYE-vejOdLN6-27" target="qqcxtKHgyYE-vejOdLN6-13">
          <mxGeometry relative="1" as="geometry" />
        </mxCell>
        <mxCell id="qqcxtKHgyYE-vejOdLN6-27" value="R.N.04:&amp;nbsp;Los niños menores de 3 años tendrán entrada gratuita al club. El precio de la suscripción para menores de 14 años y mayores de 65 será menor que la predeterminada." style="shape=note;whiteSpace=wrap;html=1;backgroundOutline=1;darkOpacity=0.05;" vertex="1" parent="1">
          <mxGeometry x="-672.5" y="848" width="370" height="100" as="geometry" />
        </mxCell>
        <mxCell id="qqcxtKHgyYE-vejOdLN6-33" style="edgeStyle=orthogonalEdgeStyle;rounded=0;orthogonalLoop=1;jettySize=auto;html=1;entryX=0.5;entryY=0;entryDx=0;entryDy=0;endArrow=classic;endFill=1;" edge="1" parent="1" source="qqcxtKHgyYE-vejOdLN6-35" target="qqcxtKHgyYE-vejOdLN6-13">
          <mxGeometry relative="1" as="geometry" />
        </mxCell>
        <mxCell id="qqcxtKHgyYE-vejOdLN6-34" value="asociado a" style="edgeLabel;html=1;align=center;verticalAlign=middle;resizable=0;points=[];" connectable="0" vertex="1" parent="qqcxtKHgyYE-vejOdLN6-33">
          <mxGeometry x="0.0357" relative="1" as="geometry">
            <mxPoint as="offset" />
          </mxGeometry>
        </mxCell>
        <mxCell id="qqcxtKHgyYE-vejOdLN6-35" value="&lt;p style=&quot;margin:0px;margin-top:4px;text-align:center;&quot;&gt;&lt;i&gt;&amp;lt;&amp;lt;Entidad&amp;gt;&amp;gt;&lt;/i&gt;&lt;br&gt;&lt;b&gt;Pago&lt;/b&gt;&lt;/p&gt;&lt;hr size=&quot;1&quot;&gt;&lt;p style=&quot;margin:0px;margin-left:4px;&quot;&gt;&lt;br&gt;&lt;/p&gt;&lt;p style=&quot;margin:0px;margin-left:4px;&quot;&gt;fechaRealización:1/12/24&lt;/p&gt;&lt;p style=&quot;margin:0px;margin-left:4px;&quot;&gt;metodoPago: Transferencia&lt;/p&gt;" style="verticalAlign=top;align=left;overflow=fill;fontSize=12;fontFamily=Helvetica;html=1;rounded=0;shadow=0;comic=0;labelBackgroundColor=none;strokeWidth=1" vertex="1" parent="1">
          <mxGeometry x="-320" y="310" width="190" height="140" as="geometry" />
        </mxCell>
        <mxCell id="qqcxtKHgyYE-vejOdLN6-36" value="1" style="text;html=1;align=center;verticalAlign=middle;resizable=0;points=[];autosize=1;strokeColor=none;fillColor=none;" vertex="1" parent="1">
          <mxGeometry x="-225" y="608" width="30" height="30" as="geometry" />
        </mxCell>
        <mxCell id="qqcxtKHgyYE-vejOdLN6-44" value="*" style="text;html=1;align=center;verticalAlign=middle;resizable=0;points=[];autosize=1;strokeColor=none;fillColor=none;" vertex="1" parent="1">
          <mxGeometry x="-225" y="450" width="30" height="30" as="geometry" />
        </mxCell>
        <mxCell id="qqcxtKHgyYE-vejOdLN6-47" value="1" style="text;html=1;align=center;verticalAlign=middle;resizable=0;points=[];autosize=1;strokeColor=none;fillColor=none;" vertex="1" parent="1">
          <mxGeometry x="-170" y="280" width="30" height="30" as="geometry" />
        </mxCell>
        <mxCell id="qqcxtKHgyYE-vejOdLN6-48" value="*" style="text;html=1;align=center;verticalAlign=middle;resizable=0;points=[];autosize=1;strokeColor=none;fillColor=none;" vertex="1" parent="1">
          <mxGeometry x="245" y="200" width="30" height="30" as="geometry" />
        </mxCell>
        <mxCell id="qqcxtKHgyYE-vejOdLN6-49" style="edgeStyle=orthogonalEdgeStyle;rounded=0;orthogonalLoop=1;jettySize=auto;html=1;exitX=0.25;exitY=1;exitDx=0;exitDy=0;entryX=0.779;entryY=-0.002;entryDx=0;entryDy=0;entryPerimeter=0;" edge="1" parent="1" source="qqcxtKHgyYE-vejOdLN6-7" target="qqcxtKHgyYE-vejOdLN6-35">
          <mxGeometry relative="1" as="geometry">
            <Array as="points">
              <mxPoint x="282" y="250" />
              <mxPoint x="-172" y="250" />
            </Array>
          </mxGeometry>
        </mxCell>
        <mxCell id="qqcxtKHgyYE-vejOdLN6-50" value="realiza&lt;div&gt;primer pago&lt;/div&gt;" style="edgeLabel;html=1;align=center;verticalAlign=middle;resizable=0;points=[];" connectable="0" vertex="1" parent="qqcxtKHgyYE-vejOdLN6-49">
          <mxGeometry x="-0.4183" y="1" relative="1" as="geometry">
            <mxPoint as="offset" />
          </mxGeometry>
        </mxCell>
      </root>
    </mxGraphModel>
  </diagram>
</mxfile>
